<?xml version="1.0" encoding="UTF-8"?>
<svg version="1.1" xmlns="http://www.w3.org/2000/svg" width="420" height="255">
<path d="M0 0 C138.6 0 277.2 0 420 0 C420 84.15 420 168.3 420 255 C281.4 255 142.8 255 0 255 C0 170.85 0 86.7 0 0 Z " fill="#000103" transform="translate(0,0)"/>
<path d="M0 0 C0 0.66 0 1.32 0 2 C-1.65 2 -3.3 2 -5 2 C-4.67 4.64 -4.34 7.28 -4 10 C0.62 9.67 5.24 9.34 10 9 C9.67 6.69 9.34 4.38 9 2 C9.99 2.33 10.98 2.66 12 3 C13.1875 6.5625 13.1875 6.5625 14 10 C9.06215348 11.97513861 5.2372694 12.26186347 0 12 C-0.66 11.67 -1.32 11.34 -2 11 C-1.67 11.7425 -1.34 12.485 -1 13.25 C0 16 0 16 0 20 C-1.9570868 20.67031719 -3.91571113 21.33614683 -5.875 22 C-6.96554688 22.37125 -8.05609375 22.7425 -9.1796875 23.125 C-12 24 -12 24 -14 24 C-14 23.34 -14 22.68 -14 22 C-8.555 20.515 -8.555 20.515 -3 19 C-3.495 17.47375 -3.99 15.9475 -4.5 14.375 C-5.68606913 10.45484664 -6.32590831 7.12817191 -6 3 C-6.66 3 -7.32 3 -8 3 C-8 2.34 -8 1.68 -8 1 C-5.23735711 0.40267181 -2.83967231 0 0 0 Z " fill="#102132" transform="translate(160,145)"/>
<path d="M0 0 C6.08983781 0.55362162 12.02176918 1.73820128 18 3 C18 4.65 18 6.3 18 8 C19.32 8 20.64 8 22 8 C22 8.66 22 9.32 22 10 C17.05 12.475 17.05 12.475 12 15 C11.67 14.34 11.34 13.68 11 13 C12.65 12.67 14.3 12.34 16 12 C16 9.36 16 6.72 16 4 C14.4840625 4.061875 14.4840625 4.061875 12.9375 4.125 C8.81923948 3.99426157 5.88169467 3.26749214 2 2 C2.33 4.97 2.66 7.94 3 11 C2.01 10.67 1.02 10.34 0 10 C-0.19412181 8.52168779 -0.38012131 7.04230684 -0.5625 5.5625 C-0.66691406 4.73878906 -0.77132812 3.91507812 -0.87890625 3.06640625 C-0.91886719 2.38449219 -0.95882812 1.70257813 -1 1 C-0.67 0.67 -0.34 0.34 0 0 Z " fill="#050C1C" transform="translate(252,111)"/>
<path d="M0 0 C0.66 1.32 1.32 2.64 2 4 C2.66 4 3.32 4 4 4 C4 4.99 4 5.98 4 7 C4.66 7 5.32 7 6 7 C5.67 8.32 5.34 9.64 5 11 C3.02 11.33 1.04 11.66 -1 12 C-1.33 17.61 -1.66 23.22 -2 29 C-2.66 28.67 -3.32 28.34 -4 28 C-4 23.71 -4 19.42 -4 15 C-5.65 15.66 -7.3 16.32 -9 17 C-11.3125 16.625 -11.3125 16.625 -13 16 C-10.80202597 13.80202597 -9.82453855 13.54102483 -6.875 12.875 C-5.59625 12.58625 -4.3175 12.2975 -3 12 C-3 11.34 -3 10.68 -3 10 C-2.01 10 -1.02 10 0 10 C1.231394 6.30581799 0.64432764 3.7943739 0 0 Z " fill="#060F24" transform="translate(125,65)"/>
<path d="M0 0 C2.97 0.66 5.94 1.32 9 2 C8.01 2.495 8.01 2.495 7 3 C6.27840576 4.64363134 5.60648579 6.31050386 5 8 C3.948125 8.103125 2.89625 8.20625 1.8125 8.3125 C-1.93603086 8.74499633 -1.93603086 8.74499633 -4.5 10.5625 C-7.77586585 12.44612287 -10.28686137 12.21841992 -14 12 C-14.125 8.625 -14.125 8.625 -14 5 C-13.34 4.34 -12.68 3.68 -12 3 C-12 4.98 -12 6.96 -12 9 C-10.54096742 8.69078116 -9.08279278 8.37751201 -7.625 8.0625 C-6.81289062 7.88847656 -6.00078125 7.71445313 -5.1640625 7.53515625 C-2.970537 7.07669307 -2.970537 7.07669307 -1 6 C-0.34227572 2.97065509 -0.34227572 2.97065509 0 0 Z " fill="#0D202F" transform="translate(194,116)"/>
<path d="M0 0 C0.33 0 0.66 0 1 0 C1 3.3 1 6.6 1 10 C0.01 10.495 0.01 10.495 -1 11 C-1 8.69 -1 6.38 -1 4 C-2.65 4.66 -4.3 5.32 -6 6 C-6.04898438 7.07121094 -6.09796875 8.14242187 -6.1484375 9.24609375 C-6.22345294 10.64325639 -6.2990013 12.0403905 -6.375 13.4375 C-6.42140625 14.49807617 -6.42140625 14.49807617 -6.46875 15.58007812 C-6.57280629 17.39239188 -6.77919892 19.19817988 -7 21 C-7.66 21.33 -8.32 21.66 -9 22 C-8.979375 20.865625 -8.95875 19.73125 -8.9375 18.5625 C-8.9293241 13.99217245 -9.41308664 9.52761738 -10 5 C-11.98491642 5.26676204 -11.98491642 5.26676204 -14 6 C-14.33 6.99 -14.66 7.98 -15 9 C-15.33 8.34 -15.66 7.68 -16 7 C-15.67 6.34 -15.34 5.68 -15 5 C-14.34 5 -13.68 5 -13 5 C-13 4.34 -13 3.68 -13 3 C-6.565 2.505 -6.565 2.505 0 2 C0 1.34 0 0.68 0 0 Z " fill="#091828" transform="translate(201,101)"/>
<path d="M0 0 C3.3 0.33 6.6 0.66 10 1 C9.67 1.66 9.34 2.32 9 3 C6.03 3 3.06 3 0 3 C0.33 8.61 0.66 14.22 1 20 C2.65 19.34 4.3 18.68 6 18 C3.0098979 21.33511388 0.10501426 23.21521119 -4 25 C-4.66 25 -5.32 25 -6 25 C-6 24.34 -6 23.68 -6 23 C-4.35 22.67 -2.7 22.34 -1 22 C-1.33 17.38 -1.66 12.76 -2 8 C-2.99 8 -3.98 8 -5 8 C-4.34 6.02 -3.68 4.04 -3 2 C-2.01 2 -1.02 2 0 2 C0 1.34 0 0.68 0 0 Z " fill="#0A192B" transform="translate(269,142)"/>
<path d="M0 0 C0.66 0 1.32 0 2 0 C2 1.98 2 3.96 2 6 C7.05462685 4.44727149 11.51090843 2.85669464 16 0 C16.66 0 17.32 0 18 0 C17.4140625 1.828125 17.4140625 1.828125 16 4 C12.9609375 5.484375 12.9609375 5.484375 9.375 6.75 C8.18648437 7.17796875 6.99796875 7.6059375 5.7734375 8.046875 C4.40058594 8.51867187 4.40058594 8.51867187 3 9 C3.7763932 12.0745356 3.7763932 12.0745356 6 14 C4.125 13.6875 4.125 13.6875 2 13 C1.34 12.01 0.68 11.02 0 10 C-3.58357241 9.74984127 -3.58357241 9.74984127 -7 10 C-7.33 9.34 -7.66 8.68 -8 8 C-5.69 8 -3.38 8 -1 8 C-0.67 5.36 -0.34 2.72 0 0 Z " fill="#0D1D29" transform="translate(181,160)"/>
<path d="M0 0 C0.66 0 1.32 0 2 0 C2 4.29 2 8.58 2 13 C1.01 13 0.02 13 -1 13 C-1.66 20.59 -2.32 28.18 -3 36 C-3.66 36 -4.32 36 -5 36 C-5.33786247 26.72755227 -5.09424624 18.85912168 -2 10 C-1.34 10 -0.68 10 0 10 C0 6.7 0 3.4 0 0 Z " fill="#020517" transform="translate(50,76)"/>
<path d="M0 0 C2.4375 0.375 2.4375 0.375 5 1 C6.35091528 3.70183055 6.33858058 6.11808206 6.5625 9.125 C6.64628906 10.22070312 6.73007812 11.31640625 6.81640625 12.4453125 C6.87699219 13.28835937 6.93757813 14.13140625 7 15 C5 14 5 14 3 9 C0.36 12.3 -2.28 15.6 -5 19 C-5.66 18.67 -6.32 18.34 -7 18 C-6.50628906 17.39671875 -6.01257813 16.7934375 -5.50390625 16.171875 C-4.86324219 15.37265625 -4.22257812 14.5734375 -3.5625 13.75 C-2.92441406 12.96109375 -2.28632813 12.1721875 -1.62890625 11.359375 C-0.09494695 9.13752508 0.57130246 7.63256518 1 5 C0.01 5 -0.98 5 -2 5 C-2 4.34 -2 3.68 -2 3 C-1.01 2.67 -0.02 2.34 1 2 C0.67 1.34 0.34 0.68 0 0 Z " fill="#060B1E" transform="translate(289,189)"/>
<path d="M0 0 C0.66 0 1.32 0 2 0 C2.33 2.31 2.66 4.62 3 7 C5.64 7 8.28 7 11 7 C10.67 7.66 10.34 8.32 10 9 C8.35 9 6.7 9 5 9 C5.20625 9.928125 5.4125 10.85625 5.625 11.8125 C6 15 6 15 4 18 C1.375 18.1875 1.375 18.1875 -1 18 C-0.67 17.01 -0.34 16.02 0 15 C0.66 15 1.32 15 2 15 C2 14.34 2 13.68 2 13 C0.68 12.67 -0.64 12.34 -2 12 C-0.68 11.67 0.64 11.34 2 11 C1.67 10.113125 1.34 9.22625 1 8.3125 C0.08777857 5.29076653 -0.18330958 3.11626294 0 0 Z " fill="#050B1B" transform="translate(193,187)"/>
<path d="M0 0 C1.46953125 0.14888672 1.46953125 0.14888672 2.96875 0.30078125 C6.26348524 0.67641727 9.53597611 1.11531851 12.8125 1.625 C12.8125 2.285 12.8125 2.945 12.8125 3.625 C10.1725 3.295 7.5325 2.965 4.8125 2.625 C4.4825 6.255 4.1525 9.885 3.8125 13.625 C3.1525 13.625 2.4925 13.625 1.8125 13.625 C1.8125 9.995 1.8125 6.365 1.8125 2.625 C-1.1575 2.13 -1.1575 2.13 -4.1875 1.625 C-3.5275 4.265 -2.8675 6.905 -2.1875 9.625 C-2.8475 9.625 -3.5075 9.625 -4.1875 9.625 C-4.455625 8.655625 -4.72375 7.68625 -5 6.6875 C-5.391875 5.676875 -5.78375 4.66625 -6.1875 3.625 C-7.1775 3.295 -8.1675 2.965 -9.1875 2.625 C-8.5275 2.625 -7.8675 2.625 -7.1875 2.625 C-7.1875 1.965 -7.1875 1.305 -7.1875 0.625 C-4.55311089 -0.69219456 -2.91964431 -0.29800507 0 0 Z " fill="#12293A" transform="translate(176.1875,72.375)"/>
<path d="M0 0 C0.66 0 1.32 0 2 0 C1.67 2.64 1.34 5.28 1 8 C1.66 8 2.32 8 3 8 C3 8.66 3 9.32 3 10 C3.99 10.33 4.98 10.66 6 11 C6 11.99 6 12.98 6 14 C5.01 13.67 4.02 13.34 3 13 C3 12.34 3 11.68 3 11 C2.34 11 1.68 11 1 11 C0.67 11.99 0.34 12.98 0 14 C-0.99 14.33 -1.98 14.66 -3 15 C-2.34 13.02 -1.68 11.04 -1 9 C-1.62648438 8.93941406 -2.25296875 8.87882813 -2.8984375 8.81640625 C-3.71570313 8.73261719 -4.53296875 8.64882812 -5.375 8.5625 C-6.59316406 8.44068359 -6.59316406 8.44068359 -7.8359375 8.31640625 C-10 8 -10 8 -12 7 C-11.67 6.34 -11.34 5.68 -11 5 C-10.34 5.33 -9.68 5.66 -9 6 C-6.6670134 6.04022391 -4.33293334 6.04320247 -2 6 C-1.34 4.02 -0.68 2.04 0 0 Z " fill="#071220" transform="translate(259,159)"/>
<path d="M0 0 C-0.63362466 3.675023 -0.63362466 3.675023 -2.3828125 5.2265625 C-4.65957864 7.72330604 -5.4329387 10.39335465 -6.5625 13.5625 C-8.79166667 19.79166667 -8.79166667 19.79166667 -11 22 C-10.34 18.37 -9.68 14.74 -9 11 C-8.34 11 -7.68 11 -7 11 C-6.67 8.69 -6.34 6.38 -6 4 C-7.65 4.33 -9.3 4.66 -11 5 C-4.74206349 -1.42261905 -4.74206349 -1.42261905 0 0 Z " fill="#091629" transform="translate(323,159)"/>
<path d="M0 0 C0.61875 0.165 1.2375 0.33 1.875 0.5 C6.25470729 1.20075317 10.57428989 1.07734251 15 1 C15.77403558 5.06368679 16.0984702 8.86425173 16 13 C15.67 13 15.34 13 15 13 C14.67 10.03 14.34 7.06 14 4 C11.69 4 9.38 4 7 4 C6.34 7.3 5.68 10.6 5 14 C4.34 14 3.68 14 3 14 C3.33 11.36 3.66 8.72 4 6 C4.66 6 5.32 6 6 6 C3.9927092 2.9890638 3.16115776 2.36983503 0 1 C0 0.67 0 0.34 0 0 Z " fill="#060E20" transform="translate(256,68)"/>
<path d="M0 0 C4.81449408 0.48144941 7.60171741 0.8008587 12 3 C11.01 6.63 10.02 10.26 9 14 C8.34 14 7.68 14 7 14 C7.66 10.7 8.32 7.4 9 4 C6.36 3.34 3.72 2.68 1 2 C1.66 4.97 2.32 7.94 3 11 C0 8 0 8 -1 5 C-1.99 4.34 -2.98 3.68 -4 3 C-2.68 2.67 -1.36 2.34 0 2 C0 1.34 0 0.68 0 0 Z " fill="#0C1627" transform="translate(211,70)"/>
<path d="M0 0 C2 3 2 3 2 6 C3.93784265 5.85879286 5.87526955 5.71187127 7.8125 5.5625 C8.89144531 5.48128906 9.97039062 5.40007812 11.08203125 5.31640625 C14.05989905 5.09787539 14.05989905 5.09787539 17 4 C17 3.01 17 2.02 17 1 C17.99 2.32 18.98 3.64 20 5 C16.5233662 7.14336161 13.78770805 7.21277626 9.75 7.125 C8.67234375 7.10695312 7.5946875 7.08890625 6.484375 7.0703125 C5.66453125 7.04710937 4.8446875 7.02390625 4 7 C4.33773437 7.60328125 4.67546875 8.2065625 5.0234375 8.828125 C6.26930126 11.59892599 5.79726417 13.12984899 5 16 C4.34 16 3.68 16 3 16 C1.75799248 10.6822785 0.69165788 5.41798672 0 0 Z " fill="#0E1F31" transform="translate(155,189)"/>
<path d="M0 0 C-0.62390625 0.21398437 -1.2478125 0.42796875 -1.890625 0.6484375 C-4.83585597 2.53556697 -4.97087611 4.27476726 -5.75 7.625 C-5.99234375 8.62789062 -6.2346875 9.63078125 -6.484375 10.6640625 C-6.65453125 11.43492188 -6.8246875 12.20578125 -7 13 C-7.33 13 -7.66 13 -8 13 C-7.67 8.71 -7.34 4.42 -7 0 C-13.33393082 -0.34548714 -18.10261508 0.70657253 -24 3 C-23 0 -23 0 -21.42578125 -1.0546875 C-13.91127802 -3.97159264 -7.5652447 -2.09846759 0 0 Z " fill="#0D2133" transform="translate(185,28)"/>
<path d="M0 0 C0.99 0.33 1.98 0.66 3 1 C4.1875 4.5625 4.1875 4.5625 5 8 C0.06215348 9.97513861 -3.7627306 10.26186347 -9 10 C-9.66 9.67 -10.32 9.34 -11 9 C-11.33 9.66 -11.66 10.32 -12 11 C-12.33 10.01 -12.66 9.02 -13 8 C-8.38 7.67 -3.76 7.34 1 7 C0.67 4.69 0.34 2.38 0 0 Z " fill="#030B16" transform="translate(169,147)"/>
<path d="M0 0 C0.99 0.33 1.98 0.66 3 1 C2.34 1 1.68 1 1 1 C0.6427259 6.95456831 1.03060437 10.67983283 4 16 C4 17.32 4 18.64 4 20 C1.69 20.33 -0.62 20.66 -3 21 C-3 20.34 -3 19.68 -3 19 C-1.02 19 0.96 19 3 19 C2.4946875 18.02417969 1.989375 17.04835937 1.46875 16.04296875 C0.81218344 14.7579742 0.1559508 13.47280899 -0.5 12.1875 C-0.83386719 11.54490234 -1.16773438 10.90230469 -1.51171875 10.24023438 C-3.00239084 7.30452301 -4 5.33873483 -4 2 C-2.68 2 -1.36 2 0 2 C0 1.34 0 0.68 0 0 Z " fill="#133443" transform="translate(238,117)"/>
<path d="M0 0 C0.99 0.66 1.98 1.32 3 2 C3 2.99 3 3.98 3 5 C5.31 3.68 7.62 2.36 10 1 C8.25 4.875 8.25 4.875 6 6 C5.37147066 8.33247815 4.84464754 10.69291467 4.375 13.0625 C4.11460937 14.35285156 3.85421875 15.64320313 3.5859375 16.97265625 C3.39257812 17.97167969 3.19921875 18.97070312 3 20 C1.69339643 15.70272603 2.3403238 12.39784135 3 8 C1.02 8 -0.96 8 -3 8 C-1.68 7.34 -0.36 6.68 1 6 C0.67 4.02 0.34 2.04 0 0 Z " fill="#0F2032" transform="translate(239,170)"/>
<path d="M0 0 C0.66 3.3 1.32 6.6 2 10 C-0.5654594 7.4345406 -0.54046087 5.52313332 -1 2 C-1.77085937 2.28875 -2.54171875 2.5775 -3.3359375 2.875 C-4.33882812 3.24625 -5.34171875 3.6175 -6.375 4 C-7.37273437 4.37125 -8.37046875 4.7425 -9.3984375 5.125 C-12 6 -12 6 -14 6 C-14 6.66 -14 7.32 -14 8 C-15.32 8.33 -16.64 8.66 -18 9 C-17.9296875 7.171875 -17.9296875 7.171875 -17 5 C-14.66207499 3.86392391 -12.57767844 3.02839496 -10.125 2.25 C-9.16787109 1.91935547 -9.16787109 1.91935547 -8.19140625 1.58203125 C-5.34079337 0.62389206 -3.0256129 0 0 0 Z " fill="#08162A" transform="translate(253,70)"/>
<path d="M0 0 C0.33 0 0.66 0 1 0 C1.33 3.63 1.66 7.26 2 11 C-3.70093458 12.14018692 -3.70093458 12.14018692 -7.1875 11.25 C-7.86167969 11.09015625 -8.53585938 10.9303125 -9.23046875 10.765625 C-11 10 -11 10 -13 7 C-7.06 8.485 -7.06 8.485 -1 10 C-1.020625 8.535625 -1.04125 7.07125 -1.0625 5.5625 C-1.08392007 4.04167482 -1.07179964 2.51928038 -1 1 C-0.67 0.67 -0.34 0.34 0 0 Z " fill="#0A1425" transform="translate(102,163)"/>
<path d="M0 0 C0.66 0 1.32 0 2 0 C6 4.47058824 6 4.47058824 6 7 C4.36021682 8.04349839 2.68535024 9.03182008 1 10 C-1.36158242 11.62968704 -3.67723778 13.31485878 -6 15 C-4.46096383 11.50219052 -2.30911521 8.73524139 0.07421875 5.78125 C1.22563936 3.99805972 1.22563936 3.99805972 0.64453125 1.78125 C0.43183594 1.1934375 0.21914062 0.605625 0 0 Z " fill="#020616" transform="translate(180,97)"/>
<path d="M0 0 C-0.33 2.64 -0.66 5.28 -1 8 C-1.66 6.68 -2.32 5.36 -3 4 C-3.68707031 4.30035156 -4.37414062 4.60070312 -5.08203125 4.91015625 C-6.43361328 5.48056641 -6.43361328 5.48056641 -7.8125 6.0625 C-8.70582031 6.44535156 -9.59914062 6.82820312 -10.51953125 7.22265625 C-13 8 -13 8 -16 7 C-15.38511719 6.66226563 -14.77023438 6.32453125 -14.13671875 5.9765625 C-13.32847656 5.53054687 -12.52023438 5.08453125 -11.6875 4.625 C-10.88699219 4.18414062 -10.08648437 3.74328125 -9.26171875 3.2890625 C-3.49090909 0 -3.49090909 0 0 0 Z " fill="#071422" transform="translate(239,159)"/>
<path d="M0 0 C0.66 0 1.32 0 2 0 C2.33 5.28 2.66 10.56 3 16 C3.66 16 4.32 16 5 16 C4.34 17.32 3.68 18.64 3 20 C-0.0103245 16.9896755 0.02180327 14.77096379 -0.09765625 10.546875 C-0.08605469 9.29390625 -0.07445313 8.0409375 -0.0625 6.75 C-0.05347656 5.48671875 -0.04445313 4.2234375 -0.03515625 2.921875 C-0.02355469 1.95765625 -0.01195313 0.9934375 0 0 Z " fill="#050C23" transform="translate(126,160)"/>
<path d="M0 0 C4.455 0.99 4.455 0.99 9 2 C8.01 2.495 8.01 2.495 7 3 C6.27840576 4.64363134 5.60648579 6.31050386 5 8 C3.35 8 1.7 8 0 8 C0 5.36 0 2.72 0 0 Z " fill="#04363E" transform="translate(194,116)"/>
<path d="M0 0 C0.86625 0.4640625 0.86625 0.4640625 1.75 0.9375 C3.84294184 1.92583364 5.74535275 2.5168613 8 3 C8 3.66 8 4.32 8 5 C7.01 5 6.02 5 5 5 C5.43627286 8.05391002 6.01202886 10.01989388 7.625 12.6875 C8.07875 13.450625 8.5325 14.21375 9 15 C8.67 15.66 8.34 16.32 8 17 C4.79920103 14.27932087 2.67766506 10.816688 1 7 C0.8125 4.1875 0.8125 4.1875 1 2 C0.67 1.34 0.34 0.68 0 0 Z " fill="#040716" transform="translate(308,38)"/>
<path d="M0 0 C3.32901247 2.21934164 3.75023244 3.34683329 5 7 C2.00667261 6.0022242 1.05233685 5.2477975 -1 3 C-1.18175781 3.58007812 -1.36351562 4.16015625 -1.55078125 4.7578125 C-3.0418106 9.39147293 -4.68333576 13.69762355 -7 18 C-8.3342296 13.99731119 -7.26269878 12.32791785 -5.75 8.4375 C-5.31171875 7.28121094 -4.8734375 6.12492187 -4.421875 4.93359375 C-3 2 -3 2 0 0 Z " fill="#030719" transform="translate(195,39)"/>
<path d="M0 0 C0.66 0 1.32 0 2 0 C2.19477739 1.62414378 2.38059458 3.24936423 2.5625 4.875 C2.66691406 5.77992187 2.77132812 6.68484375 2.87890625 7.6171875 C3 10 3 10 2 12 C3.32 12.99 4.64 13.98 6 15 C3.03 14.505 3.03 14.505 0 14 C-1.54799337 9.35601989 -1.49594333 4.67482292 0 0 Z " fill="#0E3F47" transform="translate(141,120)"/>
<path d="M0 0 C0.33 0 0.66 0 1 0 C1.07654536 4.51617599 1.10228696 8.59085217 0 13 C-0.66 12.67 -1.32 12.34 -2 12 C-2 11.34 -2 10.68 -2 10 C-3.093125 9.896875 -4.18625 9.79375 -5.3125 9.6875 C-9 9 -9 9 -12 6 C-8.37 6.66 -4.74 7.32 -1 8 C-1.020625 6.865625 -1.04125 5.73125 -1.0625 4.5625 C-1 1 -1 1 0 0 Z " fill="#102A3B" transform="translate(220,159)"/>
<path d="M0 0 C0 0.66 0 1.32 0 2 C-3.3 2.66 -6.6 3.32 -10 4 C-10.33 4.99 -10.66 5.98 -11 7 C-12.32 6.67 -13.64 6.34 -15 6 C-14.34 4.35 -13.68 2.7 -13 1 C-11.39602723 0.83147753 -9.7918131 0.66525114 -8.1875 0.5 C-7.29417969 0.4071875 -6.40085938 0.314375 -5.48046875 0.21875 C-3 0 -3 0 0 0 Z " fill="#142C37" transform="translate(239,143)"/>
<path d="M0 0 C0.33 0 0.66 0 1 0 C1.05447047 1.41623216 1.09300508 2.83308191 1.125 4.25 C1.14820313 5.03890625 1.17140625 5.8278125 1.1953125 6.640625 C0.9828378 9.20731941 0.28654105 10.7916067 -1 13 C-1 10.36 -1 7.72 -1 5 C-4.63 5.33 -8.26 5.66 -12 6 C-12 5.34 -12 4.68 -12 4 C-6.06 3.505 -6.06 3.505 0 3 C0 2.01 0 1.02 0 0 Z " fill="#0A192E" transform="translate(242,55)"/>
<path d="M0 0 C0.99 0.33 1.98 0.66 3 1 C3 1.66 3 2.32 3 3 C3.66 3 4.32 3 5 3 C5 3.66 5 4.32 5 5 C6.32 5 7.64 5 9 5 C9.6875 7.25 9.6875 7.25 10 10 C8.5625 12.3125 8.5625 12.3125 7 14 C6.34 13.67 5.68 13.34 5 13 C5.66 12.34 6.32 11.68 7 11 C7.6425235 8.93125966 7.6425235 8.93125966 8 7 C7.4225 6.896875 6.845 6.79375 6.25 6.6875 C3.61872985 5.88350079 2.01311907 4.86932485 0 3 C0 2.01 0 1.02 0 0 Z " fill="#040618" transform="translate(182,217)"/>
<path d="M0 0 C0 2.31 0 4.62 0 7 C-0.66 7 -1.32 7 -2 7 C-2.33 7.66 -2.66 8.32 -3 9 C-3.12375 8.071875 -3.12375 8.071875 -3.25 7.125 C-3.81258459 4.81562433 -3.81258459 4.81562433 -6.0625 3.75 C-6.701875 3.5025 -7.34125 3.255 -8 3 C-8 2.34 -8 1.68 -8 1 C-2.25 0 -2.25 0 0 0 Z " fill="#10363D" transform="translate(205,176)"/>
<path d="M0 0 C1.2065625 0.0309375 1.2065625 0.0309375 2.4375 0.0625 C2.7675 0.7225 3.0975 1.3825 3.4375 2.0625 C2.1175 2.0625 0.7975 2.0625 -0.5625 2.0625 C-0.2325 5.0325 0.0975 8.0025 0.4375 11.0625 C-0.5525 10.7325 -1.5425 10.4025 -2.5625 10.0625 C-2.75662181 8.58418779 -2.94262131 7.10480684 -3.125 5.625 C-3.22941406 4.80128906 -3.33382812 3.97757812 -3.44140625 3.12890625 C-3.48136719 2.44699219 -3.52132812 1.76507813 -3.5625 1.0625 C-2.5625 0.0625 -2.5625 0.0625 0 0 Z " fill="#0F3E43" transform="translate(254.5625,110.9375)"/>
<path d="M0 0 C0.99 0.495 0.99 0.495 2 1 C2 1.66 2 2.32 2 3 C2.66 3 3.32 3 4 3 C4 3.66 4 4.32 4 5 C4.66 5 5.32 5 6 5 C6 8.3 6 11.6 6 15 C2.60464416 11.60464416 2.64887143 10.54210004 2 6 C1.36345658 4.6520257 0.70394612 3.31403276 0 2 C0 1.34 0 0.68 0 0 Z " fill="#122837" transform="translate(208,148)"/>
<path d="M0 0 C0.66 0 1.32 0 2 0 C2.33 1.98 2.66 3.96 3 6 C3.66 6 4.32 6 5 6 C6.31626692 9.61973402 7 12.09567131 7 16 C6.34 16 5.68 16 5 16 C5 14.35 5 12.7 5 11 C4.34 11 3.68 11 3 11 C2.49384702 9.73160474 1.99530901 8.46016898 1.5 7.1875 C1.2215625 6.47980469 0.943125 5.77210938 0.65625 5.04296875 C0 3 0 3 0 0 Z " fill="#04071B" transform="translate(114,191)"/>
<path d="M0 0 C0 0.99 0 1.98 0 3 C-4.55071479 7.07169218 -6.9422646 8.1316899 -13 8 C-13 7.34 -13 6.68 -13 6 C-11.35 6 -9.7 6 -8 6 C-7.67 5.01 -7.34 4.02 -7 3 C-6.21625 2.87625 -5.4325 2.7525 -4.625 2.625 C-1.85942178 2.20882007 -1.85942178 2.20882007 0 0 Z " fill="#122939" transform="translate(209,131)"/>
<path d="M0 0 C0.66 0.66 1.32 1.32 2 2 C1.649375 2.5775 1.29875 3.155 0.9375 3.75 C-0.18065988 6.43358372 0.07396879 7.30609104 1 10 C1.33333333 11.33333333 1.66666667 12.66666667 2 14 C-1.2542015 11.16569547 -2.5206753 9.31392226 -3 5 C-3.99 5 -4.98 5 -6 5 C-6 4.34 -6 3.68 -6 3 C-5.195625 2.87625 -4.39125 2.7525 -3.5625 2.625 C-2.716875 2.41875 -1.87125 2.2125 -1 2 C-0.67 1.34 -0.34 0.68 0 0 Z " fill="#04191E" transform="translate(200,121)"/>
<path d="M0 0 C0.66 0 1.32 0 2 0 C2.21192221 5.19209404 1.5912689 9.126739 0 14 C-0.66 14 -1.32 14 -2 14 C-2 11.36 -2 8.72 -2 6 C-1.34 6 -0.68 6 0 6 C0 4.02 0 2.04 0 0 Z " fill="#193A48" transform="translate(283,137)"/>
<path d="M0 0 C0.66 0 1.32 0 2 0 C2 1.32 2 2.64 2 4 C-0.31 4.33 -2.62 4.66 -5 5 C-5 5.66 -5 6.32 -5 7 C-7.31 7.33 -9.62 7.66 -12 8 C-10 6 -10 6 -7 5 C-6.67 4.34 -6.34 3.68 -6 3 C-4.34795544 2.29788106 -2.68076231 1.63028587 -1 1 C-0.67 0.67 -0.34 0.34 0 0 Z " fill="#0D2130" transform="translate(277,199)"/>
<path d="M0 0 C2.5 1.375 2.5 1.375 5 3 C5 3.66 5 4.32 5 5 C5.66 5.33 6.32 5.66 7 6 C6.34 6 5.68 6 5 6 C5 8.64 5 11.28 5 14 C4.67 14 4.34 14 4 14 C4 11.03 4 8.06 4 5 C2.02 5.33 0.04 5.66 -2 6 C-1.01 5.67 -0.02 5.34 1 5 C0.67 3.35 0.34 1.7 0 0 Z " fill="#0D2134" transform="translate(209,188)"/>
<path d="M0 0 C0.99 0.33 1.98 0.66 3 1 C2.34 2.32 1.68 3.64 1 5 C-3.87664009 5.34833144 -6.77050005 4.41685712 -11 2 C-10.01 1.67 -9.02 1.34 -8 1 C-7.34 1.33 -6.68 1.66 -6 2 C-4.00039988 2.039992 -1.99952758 2.04346799 0 2 C0 1.34 0 0.68 0 0 Z " fill="#060D1E" transform="translate(143,208)"/>
<path d="M0 0 C0.33 0 0.66 0 1 0 C1.87890625 6.15234375 1.87890625 6.15234375 2 8 C1.67 8.33 1.34 8.66 1 9 C-0.64933228 8.93600474 -2.29615131 8.79926084 -3.9375 8.625 C-4.83339844 8.53476563 -5.72929687 8.44453125 -6.65234375 8.3515625 C-9 8 -9 8 -11 7 C-10.67 6.34 -10.34 5.68 -10 5 C-6.7 5.66 -3.4 6.32 0 7 C0 4.69 0 2.38 0 0 Z " fill="#215260" transform="translate(182,201)"/>
<path d="M0 0 C0.66 0 1.32 0 2 0 C2.86604534 1.76505435 3.71748642 3.53728074 4.5625 5.3125 C5.27599609 6.79169922 5.27599609 6.79169922 6.00390625 8.30078125 C7 11 7 11 6 14 C5.01 13.67 4.02 13.34 3 13 C2.87625 11.96875 2.7525 10.9375 2.625 9.875 C2.06110186 6.37883154 1.21317941 3.31602373 0 0 Z " fill="#060E1F" transform="translate(277,122)"/>
<path d="M0 0 C0.99 0.33 1.98 0.66 3 1 C3.6953125 2.92578125 3.6953125 2.92578125 4.125 5.3125 C4.27195312 6.09238281 4.41890625 6.87226562 4.5703125 7.67578125 C4.71210938 8.44277344 4.85390625 9.20976563 5 10 C5.3231499 11.33583795 5.65307929 12.67013726 6 14 C3.7522025 11.94766315 2.9977758 10.99332739 2 8 C1.34 7.67 0.68 7.34 0 7 C0 4.69 0 2.38 0 0 Z " fill="#15414F" transform="translate(277,74)"/>
<path d="M0 0 C2.01822917 0.06510417 4.03645833 0.13020833 6.0546875 0.1953125 C6.0546875 4.8153125 6.0546875 9.4353125 6.0546875 14.1953125 C5.7246875 14.1953125 5.3946875 14.1953125 5.0546875 14.1953125 C5.0546875 9.9053125 5.0546875 5.6153125 5.0546875 1.1953125 C3.4046875 1.8553125 1.7546875 2.5153125 0.0546875 3.1953125 C-2.2578125 2.8203125 -2.2578125 2.8203125 -3.9453125 2.1953125 C-1.9453125 0.1953125 -1.9453125 0.1953125 0 0 Z " fill="#0E1D2B" transform="translate(115.9453125,78.8046875)"/>
<path d="M0 0 C0.66 0 1.32 0 2 0 C2.33 1.98 2.66 3.96 3 6 C3.99 6 4.98 6 6 6 C4.25 9.875 4.25 9.875 2 11 C1.34 7.37 0.68 3.74 0 0 Z " fill="#0B1829" transform="translate(124,129)"/>
<path d="M0 0 C0.66 0.33 1.32 0.66 2 1 C1.01 1.7734375 1.01 1.7734375 0 2.5625 C-2.65637543 5.79995755 -2.31342132 7.92552281 -2 12 C-4.89932357 9.60490662 -5.50168276 7.68754757 -6 4 C-4.68 3.67 -3.36 3.34 -2 3 C-2 2.34 -2 1.68 -2 1 C-1.34 0.67 -0.68 0.34 0 0 Z " fill="#040A15" transform="translate(241,75)"/>
<path d="M0 0 C-0.54074373 3.78520613 -2.07572746 5.59177555 -5 8 C-5.99 8 -6.98 8 -8 8 C-6.48291727 4.46014029 -4.24676932 0 0 0 Z " fill="#060E1F" transform="translate(170,45)"/>
<path d="M0 0 C0.6875 1.5625 0.6875 1.5625 1 4 C0.31779319 5.72176005 -0.37374554 7.44229559 -1.1640625 9.1171875 C-2.44323651 11.99831774 -3.19253811 14.9564898 -4 18 C-4.33 18 -4.66 18 -5 18 C-4.41146123 11.40836577 -2.9833709 5.9667418 0 0 Z " fill="#04071D" transform="translate(63,41)"/>
<path d="M0 0 C0.99 0.33 1.98 0.66 3 1 C3 1.66 3 2.32 3 3 C-6.41002278 6.62870159 -6.41002278 6.62870159 -11 5 C-8.5132579 3.5653411 -6.6883811 2.9511186 -3.8125 2.5 C-2.4203125 2.2525 -2.4203125 2.2525 -1 2 C-0.67 1.34 -0.34 0.68 0 0 Z " fill="#030716" transform="translate(251,231)"/>
<path d="M0 0 C0.66 2.97 1.32 5.94 2 9 C1.01 8.01 0.02 7.02 -1 6 C-1 4.68 -1 3.36 -1 2 C-4.465 3.485 -4.465 3.485 -8 5 C-8.33 4.34 -8.66 3.68 -9 3 C-2.25 0 -2.25 0 0 0 Z " fill="#0E2536" transform="translate(212,114)"/>
<path d="M0 0 C-0.99 0.33 -1.98 0.66 -3 1 C-2.34 3.64 -1.68 6.28 -1 9 C-1.66 9 -2.32 9 -3 9 C-3.268125 8.030625 -3.53625 7.06125 -3.8125 6.0625 C-4.204375 5.051875 -4.59625 4.04125 -5 3 C-5.99 2.67 -6.98 2.34 -8 2 C-7.34 2 -6.68 2 -6 2 C-6 1.34 -6 0.68 -6 0 C-3.50907189 -1.24546405 -2.58919267 -0.7767578 0 0 Z " fill="#0B1A2C" transform="translate(175,73)"/>
<path d="M0 0 C2.625 0.9375 2.625 0.9375 5 2 C5 2.99 5 3.98 5 5 C4.01 4.67 3.02 4.34 2 4 C2 3.34 2 2.68 2 2 C1.34 2 0.68 2 0 2 C-0.33 2.99 -0.66 3.98 -1 5 C-1.99 5.33 -2.98 5.66 -4 6 C-2.25 1.125 -2.25 1.125 0 0 Z " fill="#0B172A" transform="translate(260,168)"/>
<path d="M0 0 C-1.06186374 3.42156094 -2.06057448 4.03200161 -5.3125 5.75 C-8.55488708 6.84911426 -10.64158092 7.30531083 -14 7 C-11.51520614 5.34347076 -9.0363745 3.83927526 -6.4375 2.375 C-5.65246094 1.92898437 -4.86742187 1.48296875 -4.05859375 1.0234375 C-2 0 -2 0 0 0 Z " fill="#1B3241" transform="translate(199,160)"/>
<path d="M0 0 C-0.99 1.485 -0.99 1.485 -2 3 C-4.3828125 3.29296875 -4.3828125 3.29296875 -7.125 3.1875 C-8.03507813 3.16042969 -8.94515625 3.13335937 -9.8828125 3.10546875 C-10.58148438 3.07066406 -11.28015625 3.03585938 -12 3 C-12 2.34 -12 1.68 -12 1 C-7.95858806 0.36605303 -4.0934693 -0.12404452 0 0 Z " fill="#135456" transform="translate(200,60)"/>
<path d="M0 0 C0.33 0.99 0.66 1.98 1 3 C-0.62249941 3.83819158 -2.24808497 4.6704116 -3.875 5.5 C-5.23238281 6.19609375 -5.23238281 6.19609375 -6.6171875 6.90625 C-9 8 -9 8 -11 8 C-11 7.34 -11 6.68 -11 6 C-10.113125 5.566875 -9.22625 5.13375 -8.3125 4.6875 C-5.45570545 3.23215183 -2.72603137 1.68372526 0 0 Z " fill="#04091D" transform="translate(238,241)"/>
<path d="M0 0 C0 0.66 0 1.32 0 2 C-1.32 2.33 -2.64 2.66 -4 3 C-4 3.66 -4 4.32 -4 5 C-6.35438733 6.42944945 -7.48032433 7.08661261 -10.25 6.625 C-10.8275 6.41875 -11.405 6.2125 -12 6 C-11.360625 5.71125 -10.72125 5.4225 -10.0625 5.125 C-7.84793921 4.17176549 -7.84793921 4.17176549 -7 2 C-2.66666667 0 -2.66666667 0 0 0 Z " fill="#091227" transform="translate(200,242)"/>
<path d="M0 0 C0.33 0 0.66 0 1 0 C0.67 4.29 0.34 8.58 0 13 C-0.99 13.33 -1.98 13.66 -3 14 C-2.68872484 12.41642541 -2.37592711 10.83315007 -2.0625 9.25 C-1.80146484 7.92742187 -1.80146484 7.92742187 -1.53515625 6.578125 C-1.07631512 4.36764947 -0.56663926 2.18487932 0 0 Z " fill="#04071C" transform="translate(328,137)"/>
<path d="M0 0 C0.99 0.33 1.98 0.66 3 1 C2.34 1 1.68 1 1 1 C0.67 2.98 0.34 4.96 0 7 C-0.99 7.33 -1.98 7.66 -3 8 C-3.33 6.02 -3.66 4.04 -4 2 C-2.68 2 -1.36 2 0 2 C0 1.34 0 0.68 0 0 Z " fill="#1C2F38" transform="translate(238,117)"/>
<path d="M0 0 C0.28875 0.639375 0.5775 1.27875 0.875 1.9375 C1.82823451 4.15206079 1.82823451 4.15206079 4 5 C-0.455 5.495 -0.455 5.495 -5 6 C-5.33 5.34 -5.66 4.68 -6 4 C-4.35 3.67 -2.7 3.34 -1 3 C-0.67 2.01 -0.34 1.02 0 0 Z " fill="#030A16" transform="translate(241,46)"/>
<path d="M0 0 C4.75 1.875 4.75 1.875 7 3 C7 4.65 7 6.3 7 8 C5.68 7.67 4.36 7.34 3 7 C3.33 5.68 3.66 4.36 4 3 C2.68 2.34 1.36 1.68 0 1 C0 0.67 0 0.34 0 0 Z " fill="#070E23" transform="translate(122,216)"/>
<path d="M0 0 C0.66 0 1.32 0 2 0 C2 0.99 2 1.98 2 3 C2.99 3.33 3.98 3.66 5 4 C5 4.66 5 5.32 5 6 C3.02 6.33 1.04 6.66 -1 7 C-0.34 6.67 0.32 6.34 1 6 C0.67 4.02 0.34 2.04 0 0 Z " fill="#091525" transform="translate(131,191)"/>
<path d="M0 0 C0.33 0 0.66 0 1 0 C1.33 2.31 1.66 4.62 2 7 C2.99 6.67 3.98 6.34 5 6 C4.34 7.65 3.68 9.3 3 11 C2.34 11 1.68 11 1 11 C0.63890458 9.35567294 0.28629924 7.7094792 -0.0625 6.0625 C-0.25972656 5.14597656 -0.45695313 4.22945312 -0.66015625 3.28515625 C-0.77230469 2.53105469 -0.88445312 1.77695313 -1 1 C-0.67 0.67 -0.34 0.34 0 0 Z " fill="#050819" transform="translate(166,167)"/>
<path d="M0 0 C0.66 0 1.32 0 2 0 C2 0.66 2 1.32 2 2 C2.66 2 3.32 2 4 2 C4.66 4.64 5.32 7.28 6 10 C2.46413986 6.82679218 0.41421969 4.83256305 0 0 Z " fill="#081124" transform="translate(128,146)"/>
<path d="M0 0 C0 0.66 0 1.32 0 2 C-1.26607607 2.53229326 -2.53810412 3.05044544 -3.8125 3.5625 C-4.52019531 3.85253906 -5.22789062 4.14257812 -5.95703125 4.44140625 C-8 5 -8 5 -11 4 C-7.61125486 1.74083657 -4.15175481 0 0 0 Z " fill="#020713" transform="translate(251,113)"/>
<path d="M0 0 C-0.75 2.4375 -0.75 2.4375 -2 5 C-4 5.875 -4 5.875 -6 6 C-6.66 5.67 -7.32 5.34 -8 5 C-2.25 0 -2.25 0 0 0 Z " fill="#0E2037" transform="translate(270,226)"/>
<path d="M0 0 C0.66 0 1.32 0 2 0 C1.88637738 1.4800841 1.75877092 2.95910074 1.625 4.4375 C1.52058594 5.67306641 1.52058594 5.67306641 1.4140625 6.93359375 C1.27742188 7.61550781 1.14078125 8.29742187 1 9 C0.01 9.495 0.01 9.495 -1 10 C-1.125 3.375 -1.125 3.375 0 0 Z " fill="#020417" transform="translate(64,95)"/>
<path d="M0 0 C0.66 0.33 1.32 0.66 2 1 C2.4140625 3.06640625 2.4140625 3.06640625 2.625 5.5625 C2.69976562 6.38878906 2.77453125 7.21507813 2.8515625 8.06640625 C2.90054688 8.70449219 2.94953125 9.34257813 3 10 C0.7522025 7.94766315 -0.0022242 6.99332739 -1 4 C-1.99 3.34 -2.98 2.68 -4 2 C-2.125 0.9375 -2.125 0.9375 0 0 Z " fill="#133B51" transform="translate(211,71)"/>
<path d="M0 0 C2 1.375 2 1.375 4 3 C4 3.66 4 4.32 4 5 C4.9590625 5.433125 4.9590625 5.433125 5.9375 5.875 C8 7 8 7 9 9 C4.5937814 7.65365543 2.56922298 5.80625626 0 2 C0 1.34 0 0.68 0 0 Z " fill="#020413" transform="translate(100,139)"/>
<path d="M0 0 C0.66 0 1.32 0 2 0 C0.6062718 4.43458973 -1.60582235 6.87378374 -5 10 C-3.66749209 6.4124787 -2.169283 3.1635377 0 0 Z " fill="#020516" transform="translate(299,128)"/>
<path d="M0 0 C1.32 0.66 2.64 1.32 4 2 C3.67 2.99 3.34 3.98 3 5 C1.35 5.33 -0.3 5.66 -2 6 C-1.34 4.02 -0.68 2.04 0 0 Z " fill="#1A3B42" transform="translate(235,197)"/>
<path d="M0 0 C0.33 0 0.66 0 1 0 C0.67 2.64 0.34 5.28 0 8 C-1.32 8 -2.64 8 -4 8 C-4.33 7.34 -4.66 6.68 -5 6 C-3.68 6 -2.36 6 -1 6 C-0.67 4.02 -0.34 2.04 0 0 Z " fill="#0A1A2D" transform="translate(153,178)"/>
<path d="M0 0 C0.99 0.33 1.98 0.66 3 1 C4.1875 4.0625 4.1875 4.0625 5 7 C3.0625 6.3125 3.0625 6.3125 1 5 C0.25 2.375 0.25 2.375 0 0 Z " fill="#14454A" transform="translate(169,147)"/>
<path d="M0 0 C-1.32 0.33 -2.64 0.66 -4 1 C-4 1.66 -4 2.32 -4 3 C-5.32 3.33 -6.64 3.66 -8 4 C-7.6875 2.0625 -7.6875 2.0625 -7 0 C-3.86650268 -1.04449911 -3.01031744 -0.93423645 0 0 Z " fill="#2D4854" transform="translate(243,75)"/>
<path d="M0 0 C0.66 0 1.32 0 2 0 C2.66 2.64 3.32 5.28 4 8 C3.34 8 2.68 8 2 8 C1.67 7.34 1.34 6.68 1 6 C0.34 6 -0.32 6 -1 6 C-0.67 4.02 -0.34 2.04 0 0 Z " fill="#0B1728" transform="translate(267,59)"/>
<path d="M0 0 C0.33 0.99 0.66 1.98 1 3 C-0.32 4.32 -1.64 5.64 -3 7 C-3.33 5.68 -3.66 4.36 -4 3 C-2.68 2.01 -1.36 1.02 0 0 Z " fill="#0A1628" transform="translate(310,185)"/>
<path d="M0 0 C1.32 0 2.64 0 4 0 C3.67 2.64 3.34 5.28 3 8 C2.34 7.01 1.68 6.02 1 5 C1.33 4.34 1.66 3.68 2 3 C1.34 3 0.68 3 0 3 C0 2.01 0 1.02 0 0 Z " fill="#203F45" transform="translate(235,159)"/>
<path d="M0 0 C2 2 2 2 2 6 C2.99 6 3.98 6 5 6 C4.67 6.99 4.34 7.98 4 9 C3.01 8.67 2.02 8.34 1 8 C0.67 5.36 0.34 2.72 0 0 Z " fill="#1F3842" transform="translate(154,115)"/>
<path d="M0 0 C-0.99 1.485 -0.99 1.485 -2 3 C-4.625 3.1875 -4.625 3.1875 -7 3 C-6.67 2.01 -6.34 1.02 -6 0 C-3.42525708 -0.99667468 -2.51072708 -1.25536354 0 0 Z " fill="#0F1C2A" transform="translate(199,202)"/>
<path d="M0 0 C0.33 0 0.66 0 1 0 C1.125 6.75 1.125 6.75 0 9 C-0.66 9 -1.32 9 -2 9 C-1.34 6.03 -0.68 3.06 0 0 Z " fill="#030717" transform="translate(192,174)"/>
<path d="M0 0 C1.65 0 3.3 0 5 0 C4.34 1.32 3.68 2.64 3 4 C2.01 4 1.02 4 0 4 C0 2.68 0 1.36 0 0 Z " fill="#3D95A3" transform="translate(195,119)"/>
<path d="M0 0 C0.66 0.33 1.32 0.66 2 1 C0.02 3.31 -1.96 5.62 -4 8 C-4 4.09161134 -2.49432124 2.88405893 0 0 Z " fill="#04061A" transform="translate(81,45)"/>
</svg>
