<svg width="24" height="24" viewBox="0 0 24 24" fill="none" xmlns="http://www.w3.org/2000/svg">
<path d="M19.5 13.875C19.5 15.8641 18.7098 17.7718 17.3033 19.1783C15.8968 20.5848 13.9891 21.375 12 21.375C10.0109 21.375 8.10322 20.5848 6.6967 19.1783C5.29018 17.7718 4.5 15.8641 4.5 13.875V10.125C4.5 8.13588 5.29018 6.22822 6.6967 4.8217C8.10322 3.41518 10.0109 2.625 12 2.625C13.9891 2.625 15.8968 3.41518 17.3033 4.8217C18.7098 6.22822 19.5 8.13588 19.5 10.125V13.875Z" stroke="#B61EEC" stroke-width="1.5" stroke-linecap="round" stroke-linejoin="round"/>
<path d="M19.5 12H4.5" stroke="#B61EEC" stroke-width="1.5" stroke-linecap="round" stroke-linejoin="round"/>
<path d="M14.625 9.75C15.2463 9.75 15.75 9.24632 15.75 8.625C15.75 8.00368 15.2463 7.5 14.625 7.5C14.0037 7.5 13.5 8.00368 13.5 8.625C13.5 9.24632 14.0037 9.75 14.625 9.75Z" fill="#B61EEC"/>
<path d="M9.375 9.75C9.99632 9.75 10.5 9.24632 10.5 8.625C10.5 8.00368 9.99632 7.5 9.375 7.5C8.75368 7.5 8.25 8.00368 8.25 8.625C8.25 9.24632 8.75368 9.75 9.375 9.75Z" fill="#B61EEC"/>
<path d="M5.25 2.625L7.15446 4.40025" stroke="#B61EEC" stroke-width="1.5" stroke-linecap="round" stroke-linejoin="round"/>
<path d="M18.75 2.625L16.8455 4.40031" stroke="#B61EEC" stroke-width="1.5" stroke-linecap="round" stroke-linejoin="round"/>
</svg>
