<svg width="24" height="24" viewBox="0 0 24 24" fill="none" xmlns="http://www.w3.org/2000/svg">
<path d="M19.5 8.25H4.5C4.08579 8.25 3.75 8.58579 3.75 9V19.5C3.75 19.9142 4.08579 20.25 4.5 20.25H19.5C19.9142 20.25 20.25 19.9142 20.25 19.5V9C20.25 8.58579 19.9142 8.25 19.5 8.25Z" stroke="#0864ED" stroke-width="1.5" stroke-linecap="round" stroke-linejoin="round"/>
<path d="M8.625 8.25V4.875C8.625 3.97989 8.98058 3.12145 9.61351 2.48851C10.2465 1.85558 11.1049 1.5 12 1.5C12.8951 1.5 13.7535 1.85558 14.3865 2.48851C15.0194 3.12145 15.375 3.97989 15.375 4.875V8.25" stroke="#0864ED" stroke-width="1.5" stroke-linecap="round" stroke-linejoin="round"/>
<path d="M12 13.875C12.2071 13.875 12.375 14.0429 12.375 14.25C12.375 14.4571 12.2071 14.625 12 14.625C11.7929 14.625 11.625 14.4571 11.625 14.25C11.625 14.0429 11.7929 13.875 12 13.875Z" fill="#0864ED" stroke="#0864ED" stroke-width="1.5"/>
</svg>
